<svg width="877" height="853" viewBox="0 0 877 853" fill="none" xmlns="http://www.w3.org/2000/svg">
<path fill-rule="evenodd" clip-rule="evenodd" d="M765.024 246.147C799.452 254.293 832.174 248.448 853.667 226.956C893.264 187.359 879.747 109.641 823.475 53.3691C767.203 -2.90292 689.485 -16.4203 649.888 23.1772C633.078 39.9869 625.84 63.6662 627.382 89.6583C625.42 89.5791 623.448 89.5391 621.467 89.5391C541.886 89.5391 477.373 154.052 477.373 233.633C477.373 313.213 541.886 377.726 621.467 377.726C696.831 377.726 758.682 319.868 765.024 246.147ZM765.024 246.147C765.379 242.023 765.56 237.849 765.56 233.633C765.56 156.033 704.22 92.7609 627.382 89.6583C629.472 124.894 647.696 164.381 680.08 196.764C705.809 222.494 736.022 239.285 765.024 246.147Z" fill="#3C92FF"/>
<path fill-rule="evenodd" clip-rule="evenodd" d="M404.387 64.555C404.387 53.5093 395.421 44.5035 384.388 45.0415C170.624 55.4653 0.511719 232.082 0.511719 448.43C0.511719 671.485 181.333 852.306 404.387 852.306C620.736 852.306 797.353 682.193 807.776 468.429C808.314 457.396 799.308 448.43 788.263 448.43H424.387C413.341 448.43 404.387 439.476 404.387 428.43V64.555Z" fill="#3C92FF"/>
</svg>
